<?xml version="1.0" encoding="utf-8"?>
<!-- Generator: Adobe Illustrator 18.0.0, SVG Export Plug-In . SVG Version: 6.00 Build 0)  -->
<!DOCTYPE svg PUBLIC "-//W3C//DTD SVG 1.1//EN" "http://www.w3.org/Graphics/SVG/1.1/DTD/svg11.dtd">
<svg version="1.1" id="Layer_1" xmlns="http://www.w3.org/2000/svg" xmlns:xlink="http://www.w3.org/1999/xlink" x="0px" y="0px"
	 viewBox="304.2 -4.5 32.4 40.7" enable-background="new 304.2 -4.5 32.4 40.7" xml:space="preserve">
<g>
	<path fill="#FFFFFF" d="M320.4,34.8c-3-3-15.2-15.7-15.2-23.2c0-8.3,6.9-15.2,15.2-15.2c8.3,0,15.2,6.9,15.2,15.2
		C335.6,19.1,323.4,31.8,320.4,34.8z"/>
	<path fill="#955230" d="M320.4-2.6c7.9,0,14.2,6.4,14.2,14.2c0,6.1-9.3,16.7-14.2,21.8c-4.9-5-14.2-15.7-14.2-21.8
		C306.2,3.8,312.5-2.6,320.4-2.6 M320.4-4.5c-8.9,0-16.2,7.3-16.2,16.2s16.2,24.5,16.2,24.5s16.2-15.5,16.2-24.5
		C336.6,2.7,329.3-4.5,320.4-4.5L320.4-4.5z"/>
</g>
<path fill="none" d="M0,0h648v648H0V0z"/>
<path fill="#955130" d="M320.4,0.3c-5.9,0-10.8,4.9-10.8,10.8s4.9,10.8,10.8,10.8s10.8-4.9,10.8-10.8S326.3,0.3,320.4,0.3z
	 M324.9,17.6l-4.5-2.8l-4.5,2.8l1.2-5.2l-4-3.5l5.3-0.4l2.1-5l2.1,4.9l5.3,0.4l-4,3.5L324.9,17.6z"/>
</svg>
