<?xml version="1.0" encoding="utf-8"?>
<!-- Generator: Adobe Illustrator 18.0.0, SVG Export Plug-In . SVG Version: 6.00 Build 0)  -->
<!DOCTYPE svg PUBLIC "-//W3C//DTD SVG 1.1//EN" "http://www.w3.org/Graphics/SVG/1.1/DTD/svg11.dtd">
<svg version="1.1" id="Layer_1" xmlns="http://www.w3.org/2000/svg" xmlns:xlink="http://www.w3.org/1999/xlink" x="0px" y="0px"
	 viewBox="0 0 648 648" enable-background="new 0 0 648 648" xml:space="preserve">
<path fill="none" d="M0,0h648v648H0V0z"/>
<path fill="#482717" d="M218.7,359.1l75.6-75.6l-189-189c-43.2,43.2-43.2,110.7,0,153.9L218.7,359.1z M402.3,310.5
	c40.5,18.9,99.9,5.4,143.1-37.8c51.3-51.3,59.4-124.2,21.6-164.7c-40.5-40.5-113.4-29.7-164.7,21.6c-43.2,43.2-56.7,99.9-37.8,143.1
	L99.9,537.3l37.8,37.8L324,388.8l186.3,186.3l37.8-37.8L361.8,351L402.3,310.5z"/>
</svg>
