<?xml version="1.0" encoding="utf-8"?>
<!-- Generator: Adobe Illustrator 18.0.0, SVG Export Plug-In . SVG Version: 6.00 Build 0)  -->
<!DOCTYPE svg PUBLIC "-//W3C//DTD SVG 1.1//EN" "http://www.w3.org/Graphics/SVG/1.1/DTD/svg11.dtd">
<svg version="1.1" id="Layer_1" xmlns="http://www.w3.org/2000/svg" xmlns:xlink="http://www.w3.org/1999/xlink" x="0px" y="0px"
	 viewBox="0 0 33 41.5" enable-background="new 0 0 33 41.5" xml:space="preserve">
<g>
	<g>
		<path fill="#FFFFFF" d="M16.5,40.1C13.4,37,1,24.1,1,16.5C1,8,8,1,16.5,1S32,8,32,16.5C32,24.1,19.6,37,16.5,40.1z"/>
		<path fill="#955230" d="M16.5,2C24.5,2,31,8.5,31,16.5c0,6.2-9.5,17-14.5,22.2C11.5,33.6,2,22.7,2,16.5C2,8.5,8.5,2,16.5,2
			 M16.5,0C7.4,0,0,7.4,0,16.5s16.5,25,16.5,25S33,25.7,33,16.5S25.6,0,16.5,0L16.5,0z"/>
	</g>
	<g>
		<path fill="#955230" d="M8.9,10.6L7.1,10c0.7-1.9,2.5-3.2,4.5-3.2c1.8,0,3.5,1.1,4.3,2.7l-1.7,0.8c-0.5-1-1.5-1.7-2.6-1.7
			C10.4,8.7,9.3,9.5,8.9,10.6z"/>
	</g>
	<g>
		<path fill="#955230" d="M25.4,10.6c-0.4-1.2-1.5-1.9-2.7-1.9c-1.1,0-2.2,0.7-2.6,1.7l-1.7-0.8c0.8-1.7,2.5-2.7,4.3-2.7
			c2,0,3.8,1.3,4.5,3.2L25.4,10.6z"/>
	</g>
	<path fill="#D57445" d="M27.9,22.7c-1.5,1.3-3.8,1.2-5.1-0.3L21,20.3l-0.7-0.7c-0.3-0.3-0.5-0.7-0.7-1.2c0.1-0.1,0.3-0.1,0.4-0.2
		c0.1,0,0.2-0.1,0.4-0.1c2-0.8,4.4-1.4,5.6-2.9c0.1,0.1,0.2,0.2,0.3,0.3l-0.1,0l0.6,0.7l1.3,1.4C29.5,19,29.4,21.3,27.9,22.7z"/>
	<g>
		<path fill="#955230" d="M29.5,13.6c-0.5,1.1-1.3,2.1-2.3,3c-0.1,0.1-0.3,0.3-0.5,0.4c-1.6,1.3-3.7,2.3-5.9,2.9
			c-0.2,0-0.4,0.1-0.6,0.1c-1.1,0.2-2.3,0.3-3.5,0.3c-4.3,0-8.2-1.4-10.7-3.9c-0.6-0.6-1.1-1.2-1.6-1.9l1.9-1.2
			c1.8,2.9,5.9,4.7,10.4,4.7c1,0,2-0.1,3-0.3c0.1,0,0.3,0,0.4-0.1c2.1-0.5,4.1-1.4,5.5-2.6c0.1-0.1,0.3-0.3,0.4-0.4
			c0.6-0.6,1.1-1.3,1.5-2L29.5,13.6z"/>
	</g>
</g>
</svg>
