<?xml version="1.0" encoding="utf-8"?>
<!-- Generator: Adobe Illustrator 18.0.0, SVG Export Plug-In . SVG Version: 6.00 Build 0)  -->
<!DOCTYPE svg PUBLIC "-//W3C//DTD SVG 1.1//EN" "http://www.w3.org/Graphics/SVG/1.1/DTD/svg11.dtd">
<svg version="1.1" id="Layer_1" xmlns="http://www.w3.org/2000/svg" xmlns:xlink="http://www.w3.org/1999/xlink" x="0px" y="0px"
	 viewBox="326.4 310 25.2 31.7" enable-background="new 326.4 310 25.2 31.7" xml:space="preserve">
<g>
	<g>
		<path fill="#FFFFFF" d="M339,340.6c-2.4-2.4-11.8-12.2-11.8-18c0-6.5,5.3-11.8,11.8-11.8s11.8,5.3,11.8,11.8
			C350.9,328.4,341.4,338.2,339,340.6z"/>
		<path fill="#955230" d="M339,311.5c6.1,0,11.1,5,11.1,11.1c0,4.7-7.3,13-11.1,17c-3.8-3.9-11.1-12.2-11.1-17
			C328,316.4,332.9,311.5,339,311.5 M339,310c-6.9,0-12.6,5.7-12.6,12.6s12.6,19.1,12.6,19.1s12.6-12.1,12.6-19.1S346,310,339,310
			L339,310z"/>
	</g>
	<g>
		<path fill="#955230" d="M333.2,318.1l-1.4-0.5c0.5-1.5,1.9-2.4,3.4-2.4c1.4,0,2.7,0.8,3.3,2.1l-1.3,0.6c-0.4-0.8-1.1-1.3-2-1.3
			C334.4,316.6,333.5,317.2,333.2,318.1z"/>
	</g>
	<g>
		<path fill="#955230" d="M345.8,318.1c-0.3-0.9-1.1-1.5-2.1-1.5c-0.8,0-1.7,0.5-2,1.3l-1.3-0.6c0.6-1.3,1.9-2.1,3.3-2.1
			c1.5,0,2.9,1,3.4,2.4L345.8,318.1z"/>
	</g>
	<path fill="#D57445" d="M347.7,327.3c-1.1,1-2.9,0.9-3.9-0.2l-1.4-1.6l-0.5-0.5c-0.2-0.2-0.4-0.5-0.5-0.9c0.1-0.1,0.2-0.1,0.3-0.2
		c0.1,0,0.2-0.1,0.3-0.1c1.5-0.6,3.4-1.1,4.3-2.2c0.1,0.1,0.2,0.2,0.2,0.2h-0.1l0.5,0.5l1,1.1C349,324.5,348.9,326.2,347.7,327.3z"
		/>
	<g>
		<path fill="#955230" d="M349,320.3c-0.4,0.8-1,1.6-1.8,2.3c-0.1,0.1-0.2,0.2-0.4,0.3c-1.2,1-2.8,1.8-4.5,2.2
			c-0.2,0-0.3,0.1-0.5,0.1c-0.8,0.2-1.8,0.2-2.7,0.2c-3.3,0-6.3-1.1-8.2-3c-0.5-0.5-0.8-0.9-1.2-1.5l1.5-0.9
			c1.4,2.2,4.5,3.6,7.9,3.6c0.8,0,1.5-0.1,2.3-0.2c0.1,0,0.2,0,0.3-0.1c1.6-0.4,3.1-1.1,4.2-2c0.1-0.1,0.2-0.2,0.3-0.3
			c0.5-0.5,0.8-1,1.1-1.5L349,320.3z"/>
	</g>
</g>
</svg>
