<?xml version="1.0" encoding="utf-8"?>
<!-- Generator: Adobe Illustrator 18.0.0, SVG Export Plug-In . SVG Version: 6.00 Build 0)  -->
<!DOCTYPE svg PUBLIC "-//W3C//DTD SVG 1.1//EN" "http://www.w3.org/Graphics/SVG/1.1/DTD/svg11.dtd">
<svg version="1.1" id="Layer_1" xmlns="http://www.w3.org/2000/svg" xmlns:xlink="http://www.w3.org/1999/xlink" x="0px" y="0px"
	 viewBox="311.4 308.2 25.2 31.7" enable-background="new 311.4 308.2 25.2 31.7" xml:space="preserve">
<g>
	<g>
		<path fill="#FFFFFF" d="M324,338.8c-2.4-2.4-11.8-12.2-11.8-18c0-6.5,5.3-11.8,11.8-11.8s11.8,5.3,11.8,11.8
			C335.8,326.6,326.4,336.4,324,338.8z"/>
		<path fill="#955230" d="M324,309.7c6.1,0,11.1,5,11.1,11.1c0,4.7-7.3,13-11.1,17c-3.8-3.9-11.1-12.2-11.1-17
			C312.9,314.6,317.9,309.7,324,309.7 M324,308.2c-6.9,0-12.6,5.7-12.6,12.6s12.6,19.1,12.6,19.1s12.6-12.1,12.6-19.1
			C336.6,313.8,330.9,308.2,324,308.2L324,308.2z"/>
	</g>
	<g>
		<path fill="#955230" d="M318.2,316.2l-1.4-0.5c0.5-1.5,1.9-2.4,3.4-2.4c1.4,0,2.7,0.8,3.3,2.1l-1.3,0.6c-0.4-0.8-1.1-1.3-2-1.3
			C319.3,314.8,318.5,315.4,318.2,316.2z"/>
	</g>
	<g>
		<path fill="#955230" d="M330.8,316.2c-0.3-0.9-1.1-1.5-2.1-1.5c-0.8,0-1.7,0.5-2,1.3l-1.3-0.6c0.6-1.3,1.9-2.1,3.3-2.1
			c1.5,0,2.9,1,3.4,2.4L330.8,316.2z"/>
	</g>
	<path fill="#955230" d="M324.2,317.9c-4.1,0-7.4,3-7.4,6.7s3.4,6.7,7.4,6.7c4.1,0,7.4-3,7.4-6.7S328.4,317.9,324.2,317.9z
		 M324.2,329.7c-3.1,0-5.5-2.2-5.5-5c0-2.7,2.4-5,5.5-5c3.1,0,5.5,2.2,5.5,5C329.7,327.5,327.3,329.7,324.2,329.7z"/>
	<path fill="#D57445" d="M327.7,325.2c0,2.4-1.5,4.3-3.4,4.3s-3.4-1.9-3.4-4.3c0-0.5,0.1-1,0.2-1.5h6.5
		C327.7,324.2,327.7,324.7,327.7,325.2z"/>
	<rect x="318.3" y="321.9" fill="#955230" width="11.5" height="1.8"/>
</g>
</svg>
